<?xml version="1.0" standalone="no"?>
<!DOCTYPE svg PUBLIC "-//W3C//DTD SVG 1.1//EN" "http://www.w3.org/Graphics/SVG/1.1/DTD/svg11.dtd" >
<svg xmlns="http://www.w3.org/2000/svg" xmlns:xlink="http://www.w3.org/1999/xlink" version="1.1">
<metadata>
Created by FontForge 20170731 at Mon Oct 31 17:15:18 2011
 By Aleksey,,,
Bij regeling van 16 juni 2008 (Stcrt. 2008, nr. 115) heeft de Staat der Nederlanden (Ministerie van Algemene Zaken) een auteursrechtelijk voorbehoud gemaakt, als bedoeld in artikel 15b van de Auteurswet 1912, met betrekking tot het gebruik en de toepassing van het ontwerp van het voor de Rijksoverheid algemeen geldende Rijkslogo en de huisstijl, waaronder begrepen het gebruik van de lettertypes RijksoverheidSerif en RijksoverheidSans.   Genoemd voorbehoud is niet van toepassing op partijen aan wie door of vanwege de Rijksoverheid het Rijkslogo en de huisstijl ter beschikking is gesteld met het oog op het gebruik bij de uitoefening van werkzaamheden of diensten in opdracht van de Rijksoverheid. Ieder gebruik in welke vorm of wijze, hetzij elektronisch, mechanisch, door fotokopiee:n, opnamen of enige andere manier is verboden tenzij er voorafgaand schriftelijke toestemming van de Rijksoverheid is verkregen. Voor toestemming kunt u zich wenden tot de Rijksvoorlichtingsdienst.   Auteur: Peter Verheul.
</metadata>
<defs>
<font id="RijksoverheidSansText-Regular" horiz-adv-x="1206" >
  <font-face 
    font-family="RijksoverheidSansText"
    font-weight="400"
    font-stretch="normal"
    units-per-em="2048"
    panose-1="2 11 5 3 4 2 2 6 2 3"
    ascent="1657"
    descent="-391"
    x-height="1112"
    cap-height="1491"
    bbox="-61 -461 2208 1989"
    underline-thickness="102"
    underline-position="-306"
    unicode-range="U+0020-FB04"
  />
<missing-glyph horiz-adv-x="413" 
 />
    <glyph glyph-name=".notdef" horiz-adv-x="413" 
 />
    <glyph glyph-name=".null" horiz-adv-x="0" 
 />
    <glyph glyph-name="nonmarkingreturn" horiz-adv-x="682" 
 />
    <glyph glyph-name="space" unicode=" " horiz-adv-x="466" 
 />
    <glyph glyph-name="exclam" unicode="!" horiz-adv-x="651" 
d="M193 125q0 63 34.5 101t98.5 38q131 0 131 -139q0 -61 -35 -97t-96 -36q-133 0 -133 133zM240 401v1084l190 20l-16 -680v-413z" />
    <glyph glyph-name="quotedbl" unicode="&#x22;" horiz-adv-x="798" 
d="M131 1569h180l-26 -471h-125zM489 1569h179l-27 -471h-125z" />
    <glyph glyph-name="numbersign" unicode="#" horiz-adv-x="1347" 
d="M53 393l13 135h278l53 439h-274l16 133h275l49 391h137l-47 -391h332l49 391h141l-49 -391h272l-16 -133h-272l-56 -439h271l-15 -135h-274l-45 -393h-141l49 393h-336l-47 -393h-135l47 393h-275zM481 528h334l55 439h-333z" />
    <glyph glyph-name="dollar" unicode="$" 
d="M158 18v166q188 -41 356 -41q162 0 257 73t95 192q0 92 -53 151t-180 103l-184 63q-127 43 -201 133t-74 219q0 160 103.5 272.5t281.5 141.5v240h135v-226q162 0 299 -26l-18 -160q-145 29 -293 29q-154 0 -241 -67t-87 -171q0 -90 47.5 -142.5t155.5 -86.5l191 -66
q154 -51 226.5 -142t72.5 -235q0 -172 -111 -291.5t-299 -150.5v-236h-135v226h-2q-182 -1 -342 32z" />
    <glyph glyph-name="percent" unicode="%" horiz-adv-x="1882" 
d="M80 1064q0 216 104.5 329.5t264.5 113.5q156 0 251 -104.5t95 -319.5q0 -207 -106.5 -321.5t-260.5 -114.5q-160 0 -254 100.5t-94 316.5zM233 1079q0 -301 205 -301q92 0 147.5 76t55.5 221q0 305 -205 305q-92 0 -147.5 -77t-55.5 -224zM575 -2l605 1534l125 -49
l-605 -1536zM1087 400q0 216 104.5 330t262.5 114t253 -104.5t95 -319.5q0 -209 -105.5 -322.5t-262.5 -113.5q-158 0 -252.5 100t-94.5 316zM1243 416q0 -301 203 -301q92 0 148.5 75.5t56.5 221.5q0 305 -207 305q-94 0 -147.5 -77t-53.5 -224z" />
    <glyph glyph-name="ampersand" unicode="&#x26;" horiz-adv-x="1617" 
d="M164 395q0 129 87 234.5t236 142.5v8q-260 80 -260 330q0 170 126 285.5t323 115.5q154 0 272 -36l-14 -154q-127 31 -250 31q-121 0 -195.5 -65.5t-74.5 -170.5q0 -137 95 -200.5t294 -63.5h49v-154h-90q-190 0 -300 -83t-110 -203q0 -129 94.5 -202t270.5 -73
q215 0 360.5 166t145.5 473h-166v150h477v-150h-141q0 -371 -197 -583.5t-491 -212.5q-266 0 -403.5 109t-137.5 306z" />
    <glyph glyph-name="quotesingle" unicode="'" horiz-adv-x="442" 
d="M131 1569h180l-26 -471h-125z" />
    <glyph glyph-name="parenleft" unicode="(" horiz-adv-x="643" 
d="M111 541q0 528 342 950h149q-336 -453 -336 -942q0 -231 90 -479t246 -465h-149q-342 428 -342 936z" />
    <glyph glyph-name="parenright" unicode=")" horiz-adv-x="643" 
d="M41 -395q336 459 336 944q0 229 -89 477t-247 465h149q342 -428 342 -936q0 -528 -342 -950h-149z" />
    <glyph glyph-name="asterisk" unicode="*" horiz-adv-x="1202" 
d="M143 1194l43 143l283 -112l80 -29v84l-25 303h154l-23 -303v-84l74 31l283 112l47 -145l-291 -72l-84 -26l53 -64l195 -231l-123 -90l-160 254l-49 67l-47 -67l-158 -250l-125 84l193 231l51 66l-80 24z" />
    <glyph glyph-name="plus" unicode="+" 
d="M154 598v152h374v372h152v-372h371v-152h-371v-373h-152v373h-374z" />
    <glyph glyph-name="comma" unicode="," horiz-adv-x="559" 
d="M102 -250l109 266q-66 33 -66 109q0 59 38 101t96.5 42t96.5 -40t38 -105q0 -74 -94.5 -223.5t-124.5 -149.5h-93z" />
    <glyph glyph-name="hyphen" unicode="-" horiz-adv-x="899" 
d="M154 571v160h589v-160h-589z" />
    <glyph glyph-name="period" unicode="." horiz-adv-x="559" 
d="M143 125q0 63 35 103t103 40q63 0 99 -37.5t36 -105.5q0 -61 -36 -100t-99 -39q-68 0 -103 36.5t-35 102.5z" />
    <glyph glyph-name="slash" unicode="/" horiz-adv-x="729" 
d="M-47 -377l690 1901l135 -51l-692 -1901z" />
    <glyph glyph-name="zero" unicode="0" 
d="M109 541q0 272 146 432t361 160t348.5 -148.5t133.5 -413.5q0 -268 -147.5 -429.5t-362.5 -161.5q-217 0 -348 145.5t-131 415.5zM283 555q0 -209 88 -316.5t235 -107.5q137 0 228.5 118t91.5 316q0 207 -85 310.5t-241 103.5q-141 0 -229 -111.5t-88 -312.5z" />
    <glyph glyph-name="one" unicode="1" horiz-adv-x="823" 
d="M84 913v146q172 53 352 53h123v-1112h-172v946q-153 0 -303 -33z" />
    <glyph glyph-name="two" unicode="2" horiz-adv-x="1105" 
d="M106 141q53 199 281 330l152 84q98 53 139 109.5t41 128.5q0 76 -66.5 123t-181.5 47q-154 0 -305 -48v158q172 49 323 49q190 0 299 -87t109 -226q0 -121 -62.5 -208t-199.5 -161l-162 -82q-135 -72 -197 -192v-6h701v-160h-819z" />
    <glyph glyph-name="three" unicode="3" horiz-adv-x="1005" 
d="M76 -252h168q217 0 350 97.5t133 248.5q0 264 -352 303q-111 -43 -205 -61l-29 133q455 113 564 487h-623v156h754l49 -121q-96 -332 -344 -481v-6q369 -61 368 -395q0 -215 -187 -361.5t-474 -146.5h-172v147z" />
    <glyph glyph-name="four" unicode="4" horiz-adv-x="1181" 
d="M94 106q10 346 201.5 639t476.5 371h137v-969h170v-147h-170v-399h-166v399h-600zM256 147h487v799h-4q-201 -92 -338 -310.5t-145 -488.5z" />
    <glyph glyph-name="five" unicode="5" horiz-adv-x="1101" 
d="M143 -252h160q211 0 346 109.5t135 281.5q0 143 -95 222t-261 79q-117 0 -260 -14v686h745v-156h-587v-370q76 12 166 12q213 0 343 -116.5t130 -319.5q0 -250 -190.5 -405.5t-477.5 -155.5h-154v147z" />
    <glyph glyph-name="six" unicode="6" 
d="M143 598q0 451 201 673t530 222h156v-145h-145q-418 0 -529 -424l2 -6q113 59 260 59q203 0 324 -124t121 -341q0 -240 -127 -386t-330 -146q-215 0 -339 158.5t-124 459.5zM326 586q0 -229 77.5 -345t210.5 -116q125 0 198 91t73 265q0 166 -83 254t-218 88
q-137 0 -250 -30q-8 -84 -8 -207z" />
    <glyph glyph-name="seven" unicode="7" horiz-adv-x="1044" 
d="M49 956v156h889l35 -154q-276 -281 -414.5 -627.5t-138.5 -711.5h-166q0 772 518 1331v6h-723z" />
    <glyph glyph-name="eight" unicode="8" 
d="M133 348q0 250 287 412l-74 53q-156 115 -156 303q0 160 126 277.5t302 117.5q182 0 297 -100t115 -246q0 -252 -274 -413l92 -52q227 -129 227 -323q0 -172 -138 -284.5t-341 -112.5q-211 0 -337 101t-126 267zM309 365q0 -113 82 -179.5t215 -66.5q121 0 205 65.5
t84 153.5q0 78 -41 136t-166 128l-170 96q-209 -132 -209 -333zM365 1135q0 -82 31.5 -134.5t107.5 -99.5l151 -94q106 78 156.5 156.5t50.5 185.5q0 96 -69.5 157.5t-188.5 61.5q-104 0 -171.5 -66.5t-67.5 -166.5z" />
    <glyph glyph-name="nine" unicode="9" 
d="M143 600q0 240 127 386.5t330 146.5q215 0 338 -160t123 -457q0 -453 -201 -675t-530 -222h-150v141h144q416 0 528 430l-4 5q-109 -61 -256 -62q-203 0 -326 124t-123 343zM326 633q0 -170 78.5 -257t213.5 -87q139 0 250 28q14 129 15 207q0 233 -79 348t-210 115
q-125 0 -196.5 -92t-71.5 -262z" />
    <glyph glyph-name="colon" unicode=":" horiz-adv-x="559" 
d="M143 125q0 63 35 103t103 40q63 0 99 -37.5t36 -105.5q0 -61 -36 -100t-99 -39q-68 0 -103 36.5t-35 102.5zM143 930q0 63 35 103t103 40q63 0 99 -38t36 -105q0 -61 -36 -100t-99 -39q-68 0 -103 36.5t-35 102.5z" />
    <glyph glyph-name="semicolon" unicode=";" horiz-adv-x="559" 
d="M102 -250l109 266q-66 33 -66 109q0 59 38 101t96.5 42t96.5 -40t38 -105q0 -74 -94.5 -223.5t-124.5 -149.5h-93zM143 930q0 63 35 103t103 40q63 0 99 -38t36 -105q0 -61 -36 -100t-99 -39q-68 0 -103 36.5t-35 102.5z" />
    <glyph glyph-name="less" unicode="&#x3c;" 
d="M180 621v106l746 434l78 -131l-615 -352v-4l615 -357l-78 -131z" />
    <glyph glyph-name="equal" unicode="=" 
d="M154 393v152h897v-152h-897zM154 803v151h897v-151h-897z" />
    <glyph glyph-name="greater" unicode="&#x3e;" 
d="M205 317l614 353v6l-614 354l78 131l745 -434v-106l-745 -435z" />
    <glyph glyph-name="question" unicode="?" horiz-adv-x="954" 
d="M102 1282v150q154 74 332 73q182 0 285.5 -88t103.5 -233q0 -109 -50 -191t-159 -159l-127 -89q-102 -76 -102 -165q0 -88 53 -166l-145 -13q-74 80 -74 183q0 154 160 270l129 92q72 53 100.5 102.5t28.5 116.5q0 84 -61.5 132.5t-176.5 48.5q-137 -1 -297 -64zM229 125
q0 63 34 101t97 38q133 0 134 -139q0 -61 -36 -97t-98 -36q-131 0 -131 133z" />
    <glyph glyph-name="at" unicode="@" horiz-adv-x="2170" 
d="M139 393q0 244 85 454t228.5 351t331 220t390.5 79q377 0 617.5 -227.5t240.5 -591.5q0 -307 -162 -502.5t-359 -195.5q-205 0 -243 204h-6q-154 -199 -349 -198q-137 0 -223 111.5t-86 357.5q0 301 159 485t353 184q80 0 164 -22l150 31v-838q0 -172 106 -172
q139 0 244.5 149.5t105.5 393.5q0 313 -198.5 506.5t-532.5 193.5q-166 0 -322.5 -69.5t-278.5 -191.5t-195.5 -304.5t-73.5 -390.5q0 -352 177 -533.5t445 -181.5q188 0 334 53v-113q-154 -72 -360 -71q-145 0 -275.5 48t-236 144.5t-168 260t-62.5 376.5zM784 475
q0 -332 174 -332q131 0 299 166v649q-68 14 -153 15q-129 0 -224.5 -133.5t-95.5 -364.5z" />
    <glyph glyph-name="A" unicode="A" horiz-adv-x="1288" 
d="M39 0l471 1491h281l456 -1491h-198l-121 401h-582l-119 -401h-188zM391 557h494l-236 795h-20z" />
    <glyph glyph-name="B" unicode="B" horiz-adv-x="1308" 
d="M223 0v1491h383q248 0 376 -98.5t128 -272.5q0 -250 -207 -332v-4q268 -66 268 -342q0 -209 -137 -325.5t-393 -116.5h-418zM401 152h236q168 0 258 72.5t90 205.5q0 129 -91 194.5t-306 65.5h-187v-538zM401 842h193q170 0 250 63.5t80 196.5q0 238 -330 237h-193v-497z
" />
    <glyph glyph-name="C" unicode="C" horiz-adv-x="1193" 
d="M121 711q0 199 60.5 355.5t164 249.5t229 141t265.5 48q145 0 293 -30l-21 -158q-147 29 -283 29q-215 0 -367.5 -157t-152.5 -450q0 -291 145.5 -443.5t374.5 -152.5q166 0 306 31v-154q-168 -37 -330 -36q-303 0 -493.5 188.5t-190.5 538.5z" />
    <glyph glyph-name="D" unicode="D" horiz-adv-x="1484" 
d="M223 0v1491h395q356 0 552 -179t196 -526q0 -385 -197.5 -585.5t-539.5 -200.5h-406zM401 154h232q254 0 399.5 154.5t145.5 467.5q0 279 -150.5 420t-423.5 141h-203v-1183z" />
    <glyph glyph-name="E" unicode="E" horiz-adv-x="1110" 
d="M223 0v1491h735v-156h-557v-489h504v-158h-504v-530h566v-158h-744z" />
    <glyph glyph-name="F" unicode="F" horiz-adv-x="1060" 
d="M223 0v1491h735v-156h-557v-493h504v-158h-504v-684h-178z" />
    <glyph glyph-name="G" unicode="G" horiz-adv-x="1423" 
d="M121 711q0 205 66.5 362.5t179 248.5t247 137t281.5 46q154 0 324 -30l-21 -158q-195 29 -309 29q-244 0 -412 -154t-168 -453q0 -291 153.5 -444.5t381.5 -153.5q127 0 227 13v395h-276v156h452v-680q-207 -41 -424 -41q-305 0 -503.5 190.5t-198.5 536.5z" />
    <glyph glyph-name="H" unicode="H" horiz-adv-x="1484" 
d="M223 0v1491h178v-647h682v647h181v-1491h-181v684h-682v-684h-178z" />
    <glyph glyph-name="I" unicode="I" horiz-adv-x="622" 
d="M223 0v1491h178v-1491h-178z" />
    <glyph glyph-name="J" unicode="J" horiz-adv-x="737" 
d="M39 -4v158q45 -8 108 -9q94 0 145.5 57.5t51.5 168.5v1120h178v-1124q0 -182 -100 -281.5t-268 -99.5q-76 0 -115 10z" />
    <glyph glyph-name="K" unicode="K" horiz-adv-x="1343" 
d="M223 0v1491h178v-649h129l531 649h213l-584 -705l598 -786h-231l-520 682h-136v-682h-178z" />
    <glyph glyph-name="L" unicode="L" horiz-adv-x="1021" 
d="M223 0v1491h178v-1333h564v-158h-742z" />
    <glyph glyph-name="M" unicode="M" horiz-adv-x="1878" 
d="M203 0l69 1491h273l399 -987h8l389 987h267l71 -1491h-182l-55 1311h-12l-404 -1004h-176l-412 1004h-10l-55 -1311h-170z" />
    <glyph glyph-name="N" unicode="N" horiz-adv-x="1484" 
d="M223 0v1491h277l587 -1305h11v1305h168v-1491h-279l-588 1305h-8v-1305h-168z" />
    <glyph glyph-name="O" unicode="O" horiz-adv-x="1515" 
d="M121 735q0 360 186.5 568t470.5 208q272 0 443.5 -195.5t171.5 -559t-183.5 -570t-468.5 -206.5q-274 0 -447 195t-173 560zM309 758q0 -322 124 -469.5t325 -147.5q184 0 316 145.5t132 448.5q0 322 -124 468.5t-322 146.5q-184 0 -317.5 -145.5t-133.5 -446.5z" />
    <glyph glyph-name="P" unicode="P" horiz-adv-x="1220" 
d="M223 0v1491h395q242 0 373 -115.5t131 -314.5q0 -240 -145.5 -369t-407.5 -129q-78 0 -168 10v-573h-178zM401 727q86 -8 158 -8q186 0 281.5 83t95.5 238q0 299 -338 299h-197v-612z" />
    <glyph glyph-name="Q" unicode="Q" horiz-adv-x="1515" 
d="M121 735q0 360 186.5 568t470.5 208q272 0 443.5 -195.5t171.5 -557.5q0 -299 -126 -493.5t-335 -256.5l321 -401h-217l-286 373h-9q-274 0 -447 195t-173 560zM309 758q0 -322 124 -469.5t325 -147.5q184 0 316 145.5t132 448.5q0 322 -124 468.5t-322 146.5
q-184 0 -317.5 -145.5t-133.5 -446.5z" />
    <glyph glyph-name="R" unicode="R" horiz-adv-x="1284" 
d="M223 0v1491h391q246 0 378 -107.5t132 -293.5q0 -158 -75.5 -266.5t-212.5 -159.5l397 -664h-209l-365 623h-258v-623h-178zM401 776h211q154 0 240 71t86 216q0 276 -336 276h-201v-563z" />
    <glyph glyph-name="S" unicode="S" horiz-adv-x="1136" 
d="M121 18v166q188 -41 356 -41q162 0 257 73t95 192q0 92 -53 151t-180 103l-184 63q-127 43 -200 133t-73 219q0 188 140.5 308t377.5 120q164 0 299 -26l-18 -160q-145 29 -293 29q-154 0 -241 -67t-87 -171q0 -90 47.5 -142.5t155.5 -86.5l191 -66q154 -51 226.5 -142
t72.5 -235q0 -205 -149.5 -328.5t-397.5 -123.5q-180 -1 -342 32z" />
    <glyph glyph-name="T" unicode="T" horiz-adv-x="1191" 
d="M70 1335v156h1052v-156h-436v-1335h-178v1335h-438z" />
    <glyph glyph-name="U" unicode="U" horiz-adv-x="1474" 
d="M209 512v979h180v-956q0 -205 84 -297.5t268 -92.5q168 0 258.5 96.5t90.5 278.5v971h174v-963q0 -258 -145.5 -401t-393.5 -143q-516 0 -516 528z" />
    <glyph glyph-name="V" unicode="V" horiz-adv-x="1286" 
d="M39 1491h203l399 -1311h8l410 1311h186l-479 -1491h-254z" />
    <glyph glyph-name="W" unicode="W" horiz-adv-x="1974" 
d="M39 1491h203l338 -1311h12l315 920l-129 391h191l422 -1311h12l346 1311h188l-426 -1491h-237l-281 866h-8l-291 -866h-239z" />
    <glyph glyph-name="X" unicode="X" horiz-adv-x="1241" 
d="M41 0l477 764l-448 727h215l336 -563h8l338 563h194l-444 -719l483 -772h-211l-375 608h-10l-368 -608h-195z" />
    <glyph glyph-name="Y" unicode="Y" horiz-adv-x="1232" 
d="M39 1491h215l373 -696h8l371 696h190l-489 -877v-614h-179v614z" />
    <glyph glyph-name="Z" unicode="Z" horiz-adv-x="1167" 
d="M98 0v164l762 1161v6h-721v160h922v-164l-760 -1159v-8h770v-160h-973z" />
    <glyph glyph-name="bracketleft" unicode="[" horiz-adv-x="581" 
d="M207 -397v1888h338v-125h-197v-1640h197v-123h-338z" />
    <glyph glyph-name="backslash" unicode="\" horiz-adv-x="729" 
d="M-47 1473l133 51l692 -1901l-135 -51z" />
    <glyph glyph-name="bracketright" unicode="]" horiz-adv-x="581" 
d="M37 -272h196v1640h-196v123h338v-1888h-338v125z" />
    <glyph glyph-name="asciicircum" unicode="^" 
d="M109 1020l495 498l496 -498l-107 -107l-389 392l-389 -392z" />
    <glyph glyph-name="underscore" unicode="_" horiz-adv-x="1175" 
d="M20 -109h1137v-151h-1137v151z" />
    <glyph glyph-name="grave" unicode="`" horiz-adv-x="964" 
d="M250 1583h196l224 -330h-150z" />
    <glyph glyph-name="a" unicode="a" horiz-adv-x="1101" 
d="M100 287q0 147 128 240.5t374 93.5q98 0 168 -3v121q0 227 -254 228q-158 0 -326 -74l-36 145q197 86 387 86t292.5 -93t102.5 -263v-768h-160v78q-152 -92 -330 -92q-160 0 -253 82t-93 219zM283 301q0 -76 51 -120t147 -44q158 0 289 78v262q-131 4 -172 4
q-164 0 -239.5 -51t-75.5 -129z" />
    <glyph glyph-name="b" unicode="b" horiz-adv-x="1214" 
d="M182 12v1563l172 14v-538q141 74 293 73q209 0 332 -136t123 -400q0 -281 -160 -441.5t-424 -160.5q-184 -1 -336 26zM354 152q82 -12 187 -13q170 0 276.5 108.5t106.5 325.5q0 393 -328 394q-121 0 -242 -58v-757z" />
    <glyph glyph-name="c" unicode="c" horiz-adv-x="925" 
d="M115 555q0 264 150.5 418.5t363.5 154.5q127 0 235 -30l-20 -154q-119 27 -219 27q-141 0 -236.5 -110.5t-95.5 -299.5q0 -211 94 -314.5t250 -103.5q121 0 229 31v-154q-125 -35 -250 -34q-229 0 -365 141t-136 428z" />
    <glyph glyph-name="d" unicode="d" horiz-adv-x="1214" 
d="M115 528q0 281 153.5 438.5t405.5 157.5q119 0 188 -24v475l172 14v-1589h-168v74q-123 -88 -284 -88q-209 0 -338 141t-129 401zM293 543q0 -195 89 -297.5t239 -102.5q129 0 241 70v741q-111 18 -203 19q-168 0 -267 -113.5t-99 -316.5z" />
    <glyph glyph-name="e" unicode="e" horiz-adv-x="1099" 
d="M115 555q0 274 131 426t332 152q203 0 312 -115t109 -332q0 -90 -4 -135h-708q2 -205 97 -306.5t259 -101.5q182 0 340 70v-154q-174 -74 -360 -73q-238 0 -373 141t-135 428zM293 688h522q0 299 -246 299q-106 0 -183 -80t-93 -219z" />
    <glyph glyph-name="f" unicode="f" horiz-adv-x="708" 
d="M80 971v141h135v127q0 166 97.5 260t283.5 94q72 0 154 -18l-21 -148q-63 16 -137 17q-203 0 -203 -201v-131h287v-141h-287v-971h-174v971h-135z" />
    <glyph glyph-name="g" unicode="g" horiz-adv-x="1126" 
d="M76 -152q0 74 52 141.5t128 100.5v10q-88 45 -88 140q0 49 32.5 92t88.5 63v6q-170 88 -170 308q0 195 117.5 304t324.5 109q102 0 170 -18h342v-129h-209v-6q109 -76 109 -240q0 -188 -119 -286.5t-338 -98.5q-70 0 -125 12q-31 -8 -52.5 -33.5t-21.5 -52.5
q0 -90 140 -92l299 -10q303 -8 303 -244q0 -166 -136.5 -266t-398.5 -100q-209 0 -328.5 78.5t-119.5 211.5zM231 -123q0 -84 81 -132t229 -48q367 0 366 194q0 61 -40 91t-132 34l-381 19q-123 -43 -123 -158zM291 725q0 -252 246 -252q137 0 200.5 62.5t63.5 203.5
q0 121 -66.5 184.5t-185.5 63.5q-123 0 -190.5 -66.5t-67.5 -195.5z" />
    <glyph glyph-name="h" unicode="h" 
d="M182 0v1575l172 14v-540q139 76 299 75q188 0 287.5 -97t99.5 -279v-748h-172v729q0 111 -64.5 174.5t-182.5 63.5q-133 0 -267 -58v-909h-172z" />
    <glyph glyph-name="i" unicode="i" horiz-adv-x="534" 
d="M158 1475q0 53 28.5 82.5t82 29.5t81 -29.5t27.5 -82t-30 -81t-79 -28.5q-53 0 -81.5 30t-28.5 79zM182 0v1104l172 14v-1118h-172z" />
    <glyph glyph-name="j" unicode="j" horiz-adv-x="534" 
d="M4 -297q94 27 136 81t42 153v1167l172 14v-1181q0 -166 -88 -260.5t-239 -122.5zM158 1475q0 53 28.5 82.5t82 29.5t81 -29.5t27.5 -82t-30 -81t-79 -28.5q-53 0 -81.5 30t-28.5 79z" />
    <glyph glyph-name="k" unicode="k" horiz-adv-x="1083" 
d="M182 0v1575l172 14v-907h101l370 430h213l-432 -479l471 -633h-215l-391 532h-117v-532h-172z" />
    <glyph glyph-name="l" unicode="l" horiz-adv-x="534" 
d="M182 0v1575l172 14v-1589h-172z" />
    <glyph glyph-name="m" unicode="m" horiz-adv-x="1873" 
d="M182 0v1104l166 14v-76q145 82 299 82q213 0 311 -112q184 113 367 112q188 0 286.5 -97t98.5 -279v-748h-174v727q0 113 -61.5 176.5t-178.5 63.5q-125 0 -264 -58v-909h-172v731q0 236 -242 236q-135 0 -264 -58v-909h-172z" />
    <glyph glyph-name="n" unicode="n" 
d="M182 0v1104l166 14v-76q141 82 305 82q188 0 287.5 -97t99.5 -279v-748h-172v729q0 111 -64.5 174.5t-182.5 63.5q-133 0 -267 -58v-909h-172z" />
    <glyph glyph-name="o" unicode="o" horiz-adv-x="1230" 
d="M115 541q0 268 149.5 430t364.5 162q227 0 358 -144.5t131 -419.5q0 -268 -151.5 -428.5t-366.5 -160.5q-227 0 -356 144.5t-129 416.5zM293 551q0 -205 84 -311.5t241 -106.5q143 0 231.5 116t88.5 312q0 205 -84 310.5t-240 105.5q-145 0 -233 -114.5t-88 -311.5z" />
    <glyph glyph-name="p" unicode="p" horiz-adv-x="1214" 
d="M182 -434v1538l166 14v-69q141 76 299 75q213 0 334 -137t121 -407q0 -274 -161 -434t-425 -160q-84 0 -162 16v-436h-172zM354 158q88 -18 187 -19q170 0 276.5 109.5t106.5 316.5q0 401 -328 402q-121 0 -242 -58v-751z" />
    <glyph glyph-name="q" unicode="q" horiz-adv-x="1214" 
d="M115 524q0 283 161.5 441.5t425.5 158.5q125 0 332 -24v-1534h-172v493q-137 -76 -291 -75q-215 0 -335.5 135t-120.5 405zM293 541q0 -395 330 -396q119 0 239 56v755q-94 16 -186 17q-172 0 -277.5 -108.5t-105.5 -323.5z" />
    <glyph glyph-name="r" unicode="r" horiz-adv-x="751" 
d="M182 0v1104l170 14v-129q119 135 236 135q66 0 131 -14l-21 -172q-66 18 -127 18q-100 0 -217 -114v-842h-172z" />
    <glyph glyph-name="s" unicode="s" horiz-adv-x="917" 
d="M94 23v159q145 -41 320 -41q117 0 181 45t64 121q0 63 -43 104.5t-143 67.5l-129 39q-238 68 -238 285q0 139 112 230t294 91q156 0 268 -24l-18 -152q-115 23 -260 23q-106 0 -168 -43t-62 -109q0 -61 38 -98t120 -59l129 -35q268 -70 268 -283q0 -160 -116.5 -259
t-304.5 -99q-177 0 -312 37z" />
    <glyph glyph-name="t" unicode="t" horiz-adv-x="753" 
d="M82 971v141h133v195l172 24v-219h291v-141h-291v-625q0 -102 47 -153.5t127 -51.5q76 0 150 19v-148q-96 -27 -193 -26q-303 0 -303 348v637h-133z" />
    <glyph glyph-name="u" unicode="u" horiz-adv-x="1196" 
d="M166 365v739l172 14v-733q0 -240 244 -240q123 0 262 58v901l172 14v-1118h-168v68q-141 -84 -295 -84q-188 0 -287.5 97.5t-99.5 283.5z" />
    <glyph glyph-name="v" unicode="v" horiz-adv-x="1050" 
d="M37 1112h196l306 -952h12l289 952h176l-373 -1112h-221z" />
    <glyph glyph-name="w" unicode="w" horiz-adv-x="1630" 
d="M37 1112h196l271 -952h12l221 729l-73 223h190l283 -952h12l264 952h178l-350 -1112h-221l-205 674h-10l-197 -674h-219z" />
    <glyph glyph-name="x" unicode="x" horiz-adv-x="1077" 
d="M55 0l379 565l-360 547h209l260 -418h10l258 418h193l-363 -534l379 -578h-205l-283 451h-10l-276 -451h-191z" />
    <glyph glyph-name="y" unicode="y" horiz-adv-x="1026" 
d="M39 1112h190l310 -919h10l264 919h176l-405 -1262q-49 -160 -136.5 -228t-207.5 -68q-66 0 -119 14v145q61 -8 106 -8q78 0 126 41t83 137l56 160h-72z" />
    <glyph glyph-name="z" unicode="z" horiz-adv-x="919" 
d="M68 0v145l581 818v6h-549v143h742v-143l-582 -817v-9h592v-143h-784z" />
    <glyph glyph-name="braceleft" unicode="{" horiz-adv-x="733" 
d="M59 479v133q268 33 269 179v446q0 129 64.5 199.5t172.5 70.5q70 0 105 -10v-100q-111 0 -156 -31t-45 -104v-441q0 -117 -73.5 -192.5t-225.5 -85.5v-4q299 -23 299 -236v-453q0 -152 215 -151v-96q-47 -16 -111 -17q-106 0 -175.5 58.5t-69.5 156.5v473q0 76 -61 124
t-208 81z" />
    <glyph glyph-name="bar" unicode="|" horiz-adv-x="546" 
d="M203 -395v1886h143v-1886h-143z" />
    <glyph glyph-name="braceright" unicode="}" horiz-adv-x="733" 
d="M49 1393v98q41 16 113 16q106 0 177 -58t71 -159v-469q0 -76 60 -125t204 -82v-133q-264 -33 -264 -176v-448q0 -129 -67 -200t-173 -71q-59 0 -104 13v100q109 0 154.5 29.5t45.5 105.5v438q0 119 73 194t222 85v6q-295 18 -295 236v452q0 148 -217 148z" />
    <glyph glyph-name="asciitilde" unicode="~" 
d="M143 676q123 166 291 166q80 0 201 -87t176 -87q98 0 182 110l70 -102q-109 -162 -272 -162q-72 0 -197 86t-182 86q-104 0 -197 -115z" />
    <glyph glyph-name="uni00A0" unicode="&#xa0;" horiz-adv-x="413" 
 />
    <glyph glyph-name="exclamdown" unicode="&#xa1;" horiz-adv-x="651" 
d="M193 989q0 63 34.5 101t98.5 38q131 0 131 -139q0 -61 -35 -98t-96 -37q-133 0 -133 135zM223 -387l17 680v414l174 10v-1084z" />
    <glyph glyph-name="cent" unicode="&#xa2;" 
d="M190 743q0 227 123 376t305 186v233h134v-221q133 -6 225 -31l-21 -151q-123 25 -235 24q-143 0 -246.5 -110.5t-103.5 -296.5q0 -211 102 -314.5t258 -103.5q137 0 252 33v-158q-98 -27 -231 -35v-221h-134v229q-193 27 -310.5 167t-117.5 394z" />
    <glyph glyph-name="sterling" unicode="&#xa3;" 
d="M111 0v158h108q98 90 98 297v270h-180v149h180v244q0 182 110 284.5t312 102.5q125 0 226 -26v-162q-109 29 -238 29q-113 0 -171 -57.5t-58 -158.5v-256h350v-149h-350v-254q0 -221 -86 -313h391q139 0 270 55v-160q-100 -53 -285 -53h-677z" />
    <glyph glyph-name="currency" unicode="&#xa4;" 
d="M164 340l127 127q-63 86 -64 207q0 115 64 207l-127 125l106 106l125 -127q92 63 207 64q113 0 207 -64l125 127l108 -106l-129 -125q63 -100 64 -207q0 -117 -64 -207l127 -123l-106 -108l-125 124q-86 -63 -207 -63t-207 63l-125 -127zM375 673q0 -95 66.5 -161
t161.5 -66t160.5 66t65.5 161t-65.5 161.5t-160.5 66.5t-161.5 -66.5t-66.5 -161.5z" />
    <glyph glyph-name="yen" unicode="&#xa5;" 
d="M39 1491h215l360 -696h7l356 696h192l-399 -731h283v-152h-359v-186h359v-150h-359v-272h-180v272h-356v150h356v186h-356v152h278z" />
    <glyph glyph-name="brokenbar" unicode="&#xa6;" horiz-adv-x="546" 
d="M203 231h143v-626h-143v626zM203 864v627h143v-627h-143z" />
    <glyph glyph-name="section" unicode="&#xa7;" horiz-adv-x="1136" 
d="M121 -219q188 -41 356 -41q162 0 258 72.5t96 191.5q0 96 -67 160q-66 -33 -158 -33q-186 0 -307 120t-121 304q0 150 76 254q-115 102 -115 268q0 188 140.5 308t377.5 120q164 0 299 -26l-18 -160q-145 29 -293 29q-154 0 -241 -67t-87 -171q0 -115 80 -176
q94 59 209 59q184 0 308 -120.5t124 -303.5q0 -178 -110 -295q82 -90 82 -245q0 -199 -152.5 -323t-394.5 -124q-168 0 -342 33v166zM340 561q0 -119 77 -196.5t190.5 -77.5t190 77.5t76.5 196.5t-76.5 199t-190 80t-190.5 -80t-77 -199z" />
    <glyph glyph-name="dieresis" unicode="&#xa8;" horiz-adv-x="989" 
d="M223 1388.5q0 106.5 104.5 106.5t104.5 -106.5t-104.5 -106.5t-104.5 106.5zM578 1389q0 51 28.5 78.5t75.5 27.5q49 0 77.5 -27.5t28.5 -78t-28.5 -79t-77.5 -28.5q-104 1 -104 107z" />
    <glyph glyph-name="copyright" unicode="&#xa9;" horiz-adv-x="1789" 
d="M123 743.5q0 317.5 227.5 543.5t545.5 226t544.5 -227t226.5 -543q0 -317 -226.5 -544.5t-544.5 -227.5t-545.5 227.5t-227.5 545zM242 743q0 -272 191.5 -466.5t461.5 -194.5q268 0 460.5 195.5t192.5 466t-192.5 466t-460.5 195.5q-270 0 -461.5 -196t-191.5 -466z
M487 729q0 227 138.5 350t339.5 123q94 0 190 -16l-10 -123q-109 18 -187 18q-139 0 -234 -88t-95 -247.5t91 -242.5t236 -83q111 0 201 18v-116q-102 -20 -215 -21q-205 0 -330 111.5t-125 316.5z" />
    <glyph glyph-name="ordfeminine" unicode="&#xaa;" horiz-adv-x="811" 
d="M74 956q0 100 91 161t269 61q76 0 117 -2v63q0 133 -180 133q-102 0 -232 -47l-24 123q137 55 278 55q143 0 220 -65.5t77 -182.5v-489h-135v47q-106 -55 -231 -55q-117 0 -183.5 53t-66.5 145zM223 967q0 -96 142 -97q102 0 186 39v160q-41 2 -117 2q-211 0 -211 -104z
" />
    <glyph glyph-name="guillemotleft" unicode="&#xab;" horiz-adv-x="1296" 
d="M150 569l368 486h199l-369 -475l369 -498h-199zM569 569l367 486h199l-369 -475l369 -498h-199z" />
    <glyph glyph-name="logicalnot" unicode="&#xac;" 
d="M154 803v151h897v-555h-154v404h-743z" />
    <glyph glyph-name="uni00AD" unicode="&#xad;" horiz-adv-x="899" 
d="M154 571v160h589v-160h-589z" />
    <glyph glyph-name="registered" unicode="&#xae;" horiz-adv-x="1789" 
d="M123 743.5q0 317.5 227.5 543.5t545.5 226t544.5 -227t226.5 -543q0 -317 -226.5 -544.5t-544.5 -227.5t-545.5 227.5t-227.5 545zM242 743q0 -272 191.5 -466.5t461.5 -194.5q268 0 460.5 195.5t192.5 466t-192.5 466t-460.5 195.5q-270 0 -461.5 -196t-191.5 -466z
M604 309v885h273q170 0 252.5 -63.5t82.5 -178.5q0 -98 -51 -165.5t-141 -96.5l256 -381h-164l-229 348h-144v-348h-135zM739 770h113q219 0 219 168q0 145 -197 145h-135v-313z" />
    <glyph glyph-name="macron" unicode="&#xaf;" horiz-adv-x="901" 
d="M174 1282v129h549v-129h-549z" />
    <glyph glyph-name="degree" unicode="&#xb0;" horiz-adv-x="876" 
d="M96 1157.5q0 145.5 100.5 247.5t246 102t248 -102t102.5 -247.5t-102.5 -247t-248 -101.5t-246 101.5t-100.5 247zM233 1157q0 -86 61.5 -147.5t148.5 -61.5t149.5 61.5t62.5 147.5t-62.5 148.5t-149.5 62.5t-148.5 -62.5t-61.5 -148.5z" />
    <glyph glyph-name="plusminus" unicode="&#xb1;" 
d="M154 0v152h897v-152h-897zM154 602v154h374v372h152v-372h371v-154h-371v-369h-152v369h-374z" />
    <glyph glyph-name="uni00B2" unicode="&#xb2;" horiz-adv-x="874" 
d="M117 702q8 174 198 310l101 63q84 57 121.5 102.5t37.5 106.5q0 68 -53 108t-145 40q-109 0 -217 -29v129q127 35 237 35q156 0 244 -71t88 -191q0 -168 -221 -316l-86 -55q-158 -100 -166 -223h504v-123h-617z" />
    <glyph glyph-name="uni00B3" unicode="&#xb3;" horiz-adv-x="874" 
d="M133 575v121h127q154 0 244 54.5t90 144.5q0 160 -229 186q-61 -31 -158 -49l-25 101q319 74 402 299h-439v124h553l31 -114q-41 -100 -97.5 -162.5t-148.5 -110.5v-6q125 -20 192.5 -86.5t67.5 -169.5q0 -141 -135 -236.5t-346 -95.5h-129z" />
    <glyph glyph-name="acute" unicode="&#xb4;" horiz-adv-x="964" 
d="M408 1253l221 330h198l-270 -330h-149z" />
    <glyph glyph-name="uni00B5" unicode="&#xb5;" horiz-adv-x="1214" 
d="M182 -90v1194l172 14v-733q0 -240 244 -240q125 0 264 58v901l170 14v-893q0 -82 62 -82q37 0 77 11v-134q-55 -35 -147 -34q-47 0 -84 27.5t-51 70.5q-147 -100 -318 -100q-150 0 -231 75v-129q0 -207 70 -364h-168q-60 133 -60 344z" />
    <glyph glyph-name="paragraph" unicode="&#xb6;" horiz-adv-x="1499" 
d="M94 866q0 293 178.5 461t493.5 168q27 0 91.5 -2t88.5 -2h318v-1952h-170v1821h-136v-1821h-122v692q-74 -25 -197 -24q-248 0 -396.5 162.5t-148.5 496.5z" />
    <glyph glyph-name="periodcentered" unicode="&#xb7;" horiz-adv-x="559" 
d="M143 674q0 63 35 102t103 39q63 0 99 -37t36 -104q0 -61 -36 -100t-99 -39q-68 0 -103 35.5t-35 103.5z" />
    <glyph glyph-name="cedilla" unicode="&#xb8;" horiz-adv-x="1763" 
d="M240 -315h104q156 0 156 65q0 55 -123 68l-43 4v104l129 -8q190 -14 190 -145q0 -94 -80.5 -150.5t-232.5 -56.5h-100v119z" />
    <glyph glyph-name="uni00B9" unicode="&#xb9;" horiz-adv-x="874" 
d="M180 1403v110q143 43 281 43h94v-968h-143v837q-103 1 -232 -22z" />
    <glyph glyph-name="ordmasculine" unicode="&#xba;" horiz-adv-x="882" 
d="M84 1114q0 174 106.5 281.5t262.5 107.5q162 0 255 -94t93 -272q0 -174 -108.5 -281.5t-262.5 -107.5q-160 0 -253 94t-93 272zM229 1118q0 -121 55.5 -182.5t155.5 -61.5q96 0 154.5 70t58.5 189q0 121 -55 183t-158 62q-94 0 -152.5 -70.5t-58.5 -189.5z" />
    <glyph glyph-name="guillemotright" unicode="&#xbb;" horiz-adv-x="1296" 
d="M164 82l368 475l-368 498h196l369 -486l-369 -487h-196zM582 82l368 475l-368 498h198l369 -486l-369 -487h-198z" />
    <glyph glyph-name="onequarter" unicode="&#xbc;" horiz-adv-x="1882" 
d="M180 1403v110q143 43 281 43h94v-968h-143v837q-103 1 -232 -22zM328 -256l1040 1800l121 -71l-1040 -1801zM991 -45q8 215 142.5 408.5t332.5 269.5h129v-651h123v-123h-123v-199h-143v199h-422zM1128 -18h330v512h-4q-135 -74 -227.5 -213t-98.5 -299z" />
    <glyph glyph-name="onehalf" unicode="&#xbd;" horiz-adv-x="1882" 
d="M180 1403v110q143 43 281 43h94v-968h-143v837q-103 1 -232 -22zM328 -256l1040 1800l121 -71l-1040 -1801zM1096 -227q8 174 200 309l101 63q84 57 120.5 102.5t36.5 106.5q0 68 -53 108t-143 40q-111 0 -219 -29v129q125 35 239 35q154 0 243 -70.5t89 -191.5
q0 -168 -223 -316l-84 -55q-160 -100 -166 -223h502v-121h-617z" />
    <glyph glyph-name="threequarters" unicode="&#xbe;" horiz-adv-x="1882" 
d="M133 575v121h127q154 0 244 54.5t90 144.5q0 160 -229 186q-61 -31 -158 -49l-25 101q319 74 402 299h-439v124h553l31 -114q-41 -100 -97.5 -162.5t-148.5 -110.5v-6q125 -20 192.5 -86.5t67.5 -169.5q0 -141 -135 -236.5t-346 -95.5h-129zM328 -256l1040 1800l121 -71
l-1040 -1801zM991 -45q8 215 142.5 408.5t332.5 269.5h129v-651h123v-123h-123v-199h-143v199h-422zM1128 -18h330v512h-4q-135 -74 -227.5 -213t-98.5 -299z" />
    <glyph glyph-name="questiondown" unicode="&#xbf;" horiz-adv-x="954" 
d="M131 -66q0 109 50 191t159 160l129 88q102 74 102 166q0 84 -55 166l146 12q76 -80 75 -182q0 -154 -162 -271l-124 -94q-74 -51 -104 -101.5t-30 -117.5q0 -82 62.5 -130t177.5 -48q133 0 297 63v-149q-158 -74 -334 -74q-182 0 -285.5 88t-103.5 233zM461 989
q0 63 34.5 101t98.5 38q131 0 131 -139q0 -61 -35 -98t-96 -37q-133 0 -133 135z" />
    <glyph glyph-name="Agrave" unicode="&#xc0;" horiz-adv-x="1288" 
d="M39 0l471 1491h281l456 -1491h-198l-121 401h-582l-119 -401h-188zM313 1968h197l225 -330h-151zM391 557h494l-236 795h-20z" />
    <glyph glyph-name="Aacute" unicode="&#xc1;" horiz-adv-x="1288" 
d="M39 0l471 1491h281l456 -1491h-198l-121 401h-582l-119 -401h-188zM391 557h494l-236 795h-20zM561 1638l223 330h199l-272 -330h-150z" />
    <glyph glyph-name="Acircumflex" unicode="&#xc2;" horiz-adv-x="1288" 
d="M39 0l471 1491h281l456 -1491h-198l-121 401h-582l-119 -401h-188zM324 1638l233 330h184l226 -330h-174l-136 201h-36l-140 -201h-157zM391 557h494l-236 795h-20z" />
    <glyph glyph-name="Atilde" unicode="&#xc3;" horiz-adv-x="1288" 
d="M39 0l471 1491h281l456 -1491h-198l-121 401h-582l-119 -401h-188zM291 1776q94 129 223 129q63 0 159.5 -65.5t131.5 -65.5q76 0 137 81l51 -104q-82 -125 -209 -125q-57 0 -156.5 65.5t-133.5 65.5q-82 0 -150 -86zM391 557h494l-236 795h-20z" />
    <glyph glyph-name="Adieresis" unicode="&#xc4;" horiz-adv-x="1288" 
d="M39 0l471 1491h281l456 -1491h-198l-121 401h-582l-119 -401h-188zM360 1734.5q0 106.5 105.5 106.5t105.5 -106.5t-105.5 -106.5t-105.5 106.5zM391 557h494l-236 795h-20zM717 1735q0 49 27.5 77.5t76.5 28.5t78 -28.5t29 -77.5t-29 -78t-78 -29q-104 1 -104 107z" />
    <glyph glyph-name="Aring" unicode="&#xc5;" horiz-adv-x="1288" 
d="M39 0l471 1491h281l456 -1491h-198l-121 401h-582l-119 -401h-188zM391 557h494l-236 795h-20zM455 1802q0 78 55 132.5t135 54.5t134.5 -54.5t54.5 -132.5q0 -80 -55.5 -135t-132.5 -55t-134 55t-57 135zM553 1802q0 -41 26.5 -69.5t65.5 -28.5q37 0 64.5 28.5
t27.5 69.5q0 39 -27.5 67.5t-64.5 28.5q-39 0 -65.5 -28.5t-26.5 -67.5z" />
    <glyph glyph-name="AE" unicode="&#xc6;" horiz-adv-x="1837" 
d="M37 0l794 1491h855v-156h-558v-489h502v-158h-502v-530h564v-158h-744v401h-508l-209 -401h-194zM518 557h430v795h-18z" />
    <glyph glyph-name="Ccedilla" unicode="&#xc7;" horiz-adv-x="1193" 
d="M121 711q0 199 60.5 355.5t164 249.5t229 141t265.5 48q145 0 293 -30l-21 -158q-147 29 -283 29q-215 0 -367.5 -157t-152.5 -450q0 -291 145.5 -443.5t374.5 -152.5q166 0 306 31v-154q-168 -37 -330 -36q-303 0 -493.5 188.5t-190.5 538.5zM545 -309h119q164 0 163 61
q0 47 -137 62l-51 6v112l131 -12q219 -16 219 -147q0 -90 -89 -148.5t-238 -58.5h-117v125z" />
    <glyph glyph-name="Egrave" unicode="&#xc8;" horiz-adv-x="1110" 
d="M223 0v1491h735v-156h-557v-489h504v-158h-504v-530h566v-158h-744zM236 1968h196l225 -330h-149z" />
    <glyph glyph-name="Eacute" unicode="&#xc9;" horiz-adv-x="1110" 
d="M223 0v1491h735v-156h-557v-489h504v-158h-504v-530h566v-158h-744zM483 1638l224 330h198l-270 -330h-152z" />
    <glyph glyph-name="Ecircumflex" unicode="&#xca;" horiz-adv-x="1110" 
d="M223 0v1491h735v-156h-557v-489h504v-158h-504v-530h566v-158h-744zM246 1638l233 330h185l225 -330h-172l-137 201h-37l-137 -201h-160z" />
    <glyph glyph-name="Edieresis" unicode="&#xcb;" horiz-adv-x="1110" 
d="M223 0v1491h735v-156h-557v-489h504v-158h-504v-530h566v-158h-744zM285 1734.5q0 106.5 104.5 106.5t104.5 -106.5t-104.5 -106.5t-104.5 106.5zM639 1735q0 49 28.5 77.5t75.5 28.5q49 0 78 -28.5t29 -77.5t-28.5 -78t-78.5 -29q-104 1 -104 107z" />
    <glyph glyph-name="Igrave" unicode="&#xcc;" horiz-adv-x="622" 
d="M-18 1968h196l223 -330h-149zM223 0v1491h178v-1491h-178z" />
    <glyph glyph-name="Iacute" unicode="&#xcd;" horiz-adv-x="622" 
d="M223 0v1491h178v-1491h-178zM227 1638l224 330h196l-270 -330h-150z" />
    <glyph glyph-name="Icircumflex" unicode="&#xce;" horiz-adv-x="622" 
d="M-8 1638l233 330h185l225 -330h-174l-135 201h-37l-139 -201h-158zM223 0v1491h178v-1491h-178z" />
    <glyph glyph-name="Idieresis" unicode="&#xcf;" horiz-adv-x="622" 
d="M29 1734.5q0 106.5 105.5 106.5t105.5 -106.5t-105.5 -106.5t-105.5 106.5zM223 0v1491h178v-1491h-178zM385 1735q0 49 27.5 77.5t76.5 28.5t78 -28.5t29 -77.5t-28.5 -78t-78.5 -29q-104 1 -104 107z" />
    <glyph glyph-name="Eth" unicode="&#xd0;" horiz-adv-x="1484" 
d="M74 702v144h149v645h395q356 0 552 -179t196 -526q0 -385 -197.5 -585.5t-539.5 -200.5h-406v702h-149zM401 154h232q254 0 399.5 154.5t145.5 467.5q0 279 -150.5 420t-423.5 141h-203v-491h283v-144h-283v-548z" />
    <glyph glyph-name="Ntilde" unicode="&#xd1;" horiz-adv-x="1484" 
d="M223 0v1491h277l587 -1305h11v1305h168v-1491h-279l-588 1305h-8v-1305h-168zM393 1776q94 129 223 129q63 0 159.5 -65.5t131.5 -65.5q76 0 135 81l54 -104q-82 -125 -209 -125q-57 0 -157.5 65.5t-133.5 65.5q-82 0 -150 -86z" />
    <glyph glyph-name="Ograve" unicode="&#xd2;" horiz-adv-x="1515" 
d="M121 735q0 360 186.5 568t470.5 208q272 0 443.5 -195.5t171.5 -559t-183.5 -570t-468.5 -206.5q-274 0 -447 195t-173 560zM309 758q0 -322 124 -469.5t325 -147.5q184 0 316 145.5t132 448.5q0 322 -124 468.5t-322 146.5q-184 0 -317.5 -145.5t-133.5 -446.5z
M428 1968h195l225 -330h-150z" />
    <glyph glyph-name="Oacute" unicode="&#xd3;" horiz-adv-x="1515" 
d="M121 735q0 360 186.5 568t470.5 208q272 0 443.5 -195.5t171.5 -559t-183.5 -570t-468.5 -206.5q-274 0 -447 195t-173 560zM309 758q0 -322 124 -469.5t325 -147.5q184 0 316 145.5t132 448.5q0 322 -124 468.5t-322 146.5q-184 0 -317.5 -145.5t-133.5 -446.5z
M676 1638l221 330h199l-271 -330h-149z" />
    <glyph glyph-name="Ocircumflex" unicode="&#xd4;" horiz-adv-x="1515" 
d="M121 735q0 360 186.5 568t470.5 208q272 0 443.5 -195.5t171.5 -559t-183.5 -570t-468.5 -206.5q-274 0 -447 195t-173 560zM309 758q0 -322 124 -469.5t325 -147.5q184 0 316 145.5t132 448.5q0 322 -124 468.5t-322 146.5q-184 0 -317.5 -145.5t-133.5 -446.5z
M436 1638l234 330h184l225 -330h-172l-137 201h-35l-139 -201h-160z" />
    <glyph glyph-name="Otilde" unicode="&#xd5;" horiz-adv-x="1515" 
d="M121 735q0 360 186.5 568t470.5 208q272 0 443.5 -195.5t171.5 -559t-183.5 -570t-468.5 -206.5q-274 0 -447 195t-173 560zM309 758q0 -322 124 -469.5t325 -147.5q184 0 316 145.5t132 448.5q0 322 -124 468.5t-322 146.5q-184 0 -317.5 -145.5t-133.5 -446.5z
M408 1776q92 129 221 129q66 0 162 -65.5t131 -65.5q74 0 135 81l53 -104q-82 -125 -209 -125q-57 0 -157.5 65.5t-135.5 65.5q-80 0 -149 -86z" />
    <glyph glyph-name="Odieresis" unicode="&#xd6;" horiz-adv-x="1515" 
d="M121 735q0 360 186.5 568t470.5 208q272 0 443.5 -195.5t171.5 -559t-183.5 -570t-468.5 -206.5q-274 0 -447 195t-173 560zM309 758q0 -322 124 -469.5t325 -147.5q184 0 316 145.5t132 448.5q0 322 -124 468.5t-322 146.5q-184 0 -317.5 -145.5t-133.5 -446.5z
M475 1734.5q0 106.5 104.5 106.5t104.5 -106.5t-104.5 -106.5t-104.5 106.5zM829 1735q0 49 29 77.5t76 28.5q51 0 78.5 -28.5t27.5 -77.5t-27.5 -78t-78.5 -29q-105 1 -105 107z" />
    <glyph glyph-name="multiply" unicode="&#xd7;" 
d="M190 369l306 305l-306 303l107 106l305 -303l305 303l109 -106l-307 -303l305 -303l-107 -107l-305 301l-305 -303z" />
    <glyph glyph-name="Oslash" unicode="&#xd8;" horiz-adv-x="1515" 
d="M121 735q0 360 186.5 568t470.5 208q172 0 309 -81l89 149l108 -61l-94 -166q203 -203 203 -594q0 -365 -183.5 -571.5t-468.5 -206.5q-170 0 -301 75l-84 -143l-108 61l88 156q-215 198 -215 606zM309 758q0 -317 121 -473l574 999q-96 68 -244 68q-184 0 -317.5 -146.5
t-133.5 -447.5zM522 201q98 -61 236 -62q184 0 316 146.5t132 448.5t-110 462z" />
    <glyph glyph-name="Ugrave" unicode="&#xd9;" horiz-adv-x="1474" 
d="M209 512v979h180v-956q0 -205 84 -297.5t268 -92.5q168 0 258.5 96.5t90.5 278.5v971h174v-963q0 -258 -145.5 -401t-393.5 -143q-516 0 -516 528zM408 1968h194l225 -330h-149z" />
    <glyph glyph-name="Uacute" unicode="&#xda;" horiz-adv-x="1474" 
d="M209 512v979h180v-956q0 -205 84 -297.5t268 -92.5q168 0 258.5 96.5t90.5 278.5v971h174v-963q0 -258 -145.5 -401t-393.5 -143q-516 0 -516 528zM655 1638l222 330h198l-270 -330h-150z" />
    <glyph glyph-name="Ucircumflex" unicode="&#xdb;" horiz-adv-x="1474" 
d="M209 512v979h180v-956q0 -205 84 -297.5t268 -92.5q168 0 258.5 96.5t90.5 278.5v971h174v-963q0 -258 -145.5 -401t-393.5 -143q-516 0 -516 528zM416 1638l233 330h185l225 -330h-172l-137 201h-35l-140 -201h-159z" />
    <glyph glyph-name="Udieresis" unicode="&#xdc;" horiz-adv-x="1474" 
d="M209 512v979h180v-956q0 -205 84 -297.5t268 -92.5q168 0 258.5 96.5t90.5 278.5v971h174v-963q0 -258 -145.5 -401t-393.5 -143q-516 0 -516 528zM455 1734.5q0 106.5 104.5 106.5t104.5 -106.5t-104.5 -106.5t-104.5 106.5zM809 1735q0 49 28.5 77.5t75.5 28.5
q51 0 79 -28.5t28 -77.5t-27.5 -78t-79.5 -29q-104 1 -104 107z" />
    <glyph glyph-name="Yacute" unicode="&#xdd;" horiz-adv-x="1232" 
d="M39 1491h215l373 -696h8l371 696h190l-489 -877v-614h-179v614zM535 1638l223 330h196l-270 -330h-149z" />
    <glyph glyph-name="Thorn" unicode="&#xde;" horiz-adv-x="1220" 
d="M223 0v1491h178v-256h217q242 0 373 -115.5t131 -314.5q0 -242 -145.5 -370t-407.5 -128q-78 0 -168 8v-315h-178zM401 471q86 -10 158 -10q186 0 281.5 84t95.5 239q0 297 -338 297h-197v-610z" />
    <glyph glyph-name="germandbls" unicode="&#xdf;" horiz-adv-x="1263" 
d="M215 0v1241q0 160 98.5 256t286.5 96t299 -93t111 -251q0 -84 -41 -154.5t-89.5 -110.5t-89 -86t-40.5 -87q0 -49 24.5 -80t89.5 -63l101 -47q211 -100 211 -287q0 -160 -110 -254t-278 -94q-139 0 -266 37v159q145 -41 273 -41q106 0 160.5 42t54.5 120q0 53 -33 94
t-115 80l-98 47q-94 47 -135 106.5t-41 153.5q0 68 40 129.5t87 99.5t87 97t40 125q0 96 -65.5 152.5t-182.5 56.5q-207 0 -207 -201v-1243h-172z" />
    <glyph glyph-name="agrave" unicode="&#xe0;" horiz-adv-x="1101" 
d="M100 287q0 147 128 240.5t374 93.5q98 0 168 -3v121q0 227 -254 228q-158 0 -326 -74l-36 145q197 86 387 86t292.5 -93t102.5 -263v-768h-160v78q-152 -92 -330 -92q-160 0 -253 82t-93 219zM211 1583h197l225 -330h-152zM283 301q0 -76 51 -120t147 -44q158 0 289 78
v262q-131 4 -172 4q-164 0 -239.5 -51t-75.5 -129z" />
    <glyph glyph-name="aacute" unicode="&#xe1;" horiz-adv-x="1101" 
d="M100 287q0 147 128 240.5t374 93.5q98 0 168 -3v121q0 227 -254 228q-158 0 -326 -74l-36 145q197 86 387 86t292.5 -93t102.5 -263v-768h-160v78q-152 -92 -330 -92q-160 0 -253 82t-93 219zM283 301q0 -76 51 -120t147 -44q158 0 289 78v262q-131 4 -172 4
q-164 0 -239.5 -51t-75.5 -129zM459 1253l223 330h199l-273 -330h-149z" />
    <glyph glyph-name="acircumflex" unicode="&#xe2;" horiz-adv-x="1101" 
d="M100 287q0 147 128 240.5t374 93.5q98 0 168 -3v121q0 227 -254 228q-158 0 -326 -74l-36 145q197 86 387 86t292.5 -93t102.5 -263v-768h-160v78q-152 -92 -330 -92q-160 0 -253 82t-93 219zM221 1253l234 330h184l225 -330h-174l-135 199h-37l-139 -199h-158zM283 301
q0 -76 51 -120t147 -44q158 0 289 78v262q-131 4 -172 4q-164 0 -239.5 -51t-75.5 -129z" />
    <glyph glyph-name="atilde" unicode="&#xe3;" horiz-adv-x="1101" 
d="M100 287q0 147 128 240.5t374 93.5q98 0 168 -3v121q0 227 -254 228q-158 0 -326 -74l-36 145q197 86 387 86t292.5 -93t102.5 -263v-768h-160v78q-152 -92 -330 -92q-160 0 -253 82t-93 219zM190 1411q94 131 224 131q63 0 159.5 -66.5t131.5 -66.5q76 0 137 82l51 -105
q-82 -125 -209 -124q-57 0 -156.5 65.5t-134.5 65.5q-82 0 -149 -86zM283 301q0 -76 51 -120t147 -44q158 0 289 78v262q-131 4 -172 4q-164 0 -239.5 -51t-75.5 -129z" />
    <glyph glyph-name="adieresis" unicode="&#xe4;" horiz-adv-x="1101" 
d="M100 287q0 147 128 240.5t374 93.5q98 0 168 -3v121q0 227 -254 228q-158 0 -326 -74l-36 145q197 86 387 86t292.5 -93t102.5 -263v-768h-160v78q-152 -92 -330 -92q-160 0 -253 82t-93 219zM240 1388.5q0 106.5 104.5 106.5t104.5 -106.5t-104.5 -106.5t-104.5 106.5z
M283 301q0 -76 51 -120t147 -44q158 0 289 78v262q-131 4 -172 4q-164 0 -239.5 -51t-75.5 -129zM594 1389q0 51 27.5 78.5t76.5 27.5t78 -27.5t29 -78t-28.5 -79t-78.5 -28.5q-104 1 -104 107z" />
    <glyph glyph-name="aring" unicode="&#xe5;" horiz-adv-x="1101" 
d="M100 287q0 147 128 240.5t374 93.5q98 0 168 -3v121q0 227 -254 228q-158 0 -326 -74l-36 145q197 86 387 86t292.5 -93t102.5 -263v-768h-160v78q-152 -92 -330 -92q-160 0 -253 82t-93 219zM283 301q0 -76 51 -120t147 -44q158 0 289 78v262q-131 4 -172 4
q-164 0 -239.5 -51t-75.5 -129zM352 1440q0 76 55.5 131t135.5 55t134 -55t54 -131q0 -80 -55 -136.5t-133 -56.5q-80 0 -135.5 56.5t-55.5 136.5zM451 1440q0 -41 26.5 -70t65.5 -29q37 0 64.5 29t27.5 70q0 39 -27.5 66.5t-64.5 27.5q-39 0 -65.5 -27.5t-26.5 -66.5z" />
    <glyph glyph-name="ae" unicode="&#xe6;" horiz-adv-x="1746" 
d="M100 287q0 150 129 242t373 92q100 0 168 -3v121q0 227 -254 228q-143 0 -326 -76l-36 147q197 86 387 86q250 0 344 -155q125 164 340 164q203 0 313.5 -115t110.5 -332q0 -45 -4 -135h-711q2 -205 98 -306.5t258 -101.5q180 0 340 70v-154q-168 -74 -356 -73
q-248 0 -389 155q-180 -156 -422 -155q-172 0 -267.5 81t-95.5 220zM283 301q0 -164 217 -164q190 0 323 107q-45 94 -55 229q-100 6 -170 6q-315 -2 -315 -178zM942 688h522q0 299 -247 299q-104 0 -182.5 -80t-92.5 -219z" />
    <glyph glyph-name="ccedilla" unicode="&#xe7;" horiz-adv-x="925" 
d="M115 555q0 264 150.5 418.5t363.5 154.5q127 0 235 -30l-20 -154q-119 27 -219 27q-141 0 -236.5 -110.5t-95.5 -299.5q0 -211 94 -314.5t250 -103.5q121 0 229 31v-154q-125 -35 -250 -34q-229 0 -365 141t-136 428zM367 -315h104q156 0 156 65q0 55 -123 68l-43 4v104
l131 -8q188 -14 188 -145q0 -94 -81 -150.5t-230 -56.5h-102v119z" />
    <glyph glyph-name="egrave" unicode="&#xe8;" horiz-adv-x="1099" 
d="M115 555q0 274 131 426t332 152q203 0 312 -115t109 -332q0 -90 -4 -135h-708q2 -205 97 -306.5t259 -101.5q182 0 340 70v-154q-174 -74 -360 -73q-238 0 -373 141t-135 428zM248 1583h194l226 -330h-150zM293 688h522q0 299 -246 299q-106 0 -183 -80t-93 -219z" />
    <glyph glyph-name="eacute" unicode="&#xe9;" horiz-adv-x="1099" 
d="M115 555q0 274 131 426t332 152q203 0 312 -115t109 -332q0 -90 -4 -135h-708q2 -205 97 -306.5t259 -101.5q182 0 340 70v-154q-174 -74 -360 -73q-238 0 -373 141t-135 428zM293 688h522q0 299 -246 299q-106 0 -183 -80t-93 -219zM494 1253l223 330h196l-270 -330
h-149z" />
    <glyph glyph-name="ecircumflex" unicode="&#xea;" horiz-adv-x="1099" 
d="M115 555q0 274 131 426t332 152q203 0 312 -115t109 -332q0 -90 -4 -135h-708q2 -205 97 -306.5t259 -101.5q182 0 340 70v-154q-174 -74 -360 -73q-238 0 -373 141t-135 428zM256 1253l236 330h184l225 -330h-174l-135 199h-37l-139 -199h-160zM293 688h522
q0 299 -246 299q-106 0 -183 -80t-93 -219z" />
    <glyph glyph-name="edieresis" unicode="&#xeb;" horiz-adv-x="1099" 
d="M115 555q0 274 131 426t332 152q203 0 312 -115t109 -332q0 -90 -4 -135h-708q2 -205 97 -306.5t259 -101.5q182 0 340 70v-154q-174 -74 -360 -73q-238 0 -373 141t-135 428zM293 688h522q0 299 -246 299q-106 0 -183 -80t-93 -219zM293 1388.5q0 106.5 104.5 106.5
t104.5 -106.5t-104.5 -106.5t-104.5 106.5zM647 1389q0 51 29 78.5t76 27.5q51 0 79.5 -27.5t28.5 -78t-28.5 -79t-79.5 -28.5q-105 1 -105 107z" />
    <glyph glyph-name="igrave" unicode="&#xec;" horiz-adv-x="534" 
d="M-61 1583h194l225 -330h-149zM182 0v1104l172 14v-1118h-172z" />
    <glyph glyph-name="iacute" unicode="&#xed;" horiz-adv-x="534" 
d="M182 0v1104l172 14v-1118h-172zM184 1253l224 330h196l-270 -330h-150z" />
    <glyph glyph-name="icircumflex" unicode="&#xee;" horiz-adv-x="534" 
d="M-53 1253l235 330h185l225 -330h-174l-135 199h-37l-140 -199h-159zM182 0v1104l172 14v-1118h-172z" />
    <glyph glyph-name="idieresis" unicode="&#xef;" horiz-adv-x="534" 
d="M-14 1388.5q0 106.5 104.5 106.5t104.5 -106.5t-104.5 -106.5t-104.5 106.5zM182 0v1104l172 14v-1118h-172zM340 1389q0 51 28.5 78.5t77.5 27.5t78 -27.5t29 -78t-28.5 -79t-78.5 -28.5q-106 1 -106 107z" />
    <glyph glyph-name="eth" unicode="&#xf0;" horiz-adv-x="1210" 
d="M115 541q0 268 148.5 430t352.5 162q152 0 254 -103l11 4q-45 207 -176 314l-127 -123l-78 82l104 102q-68 35 -151 35q-121 0 -246 -35v150q125 35 266 34.5t248 -63.5l121 117l86 -93l-103 -96q256 -219 256 -749q0 -369 -135 -549t-362 -180q-215 0 -342 144.5
t-127 416.5zM293 551q0 -207 84 -313.5t225 -106.5q133 0 221 120t88 329q0 168 -18 282q-115 121 -293 121q-133 0 -220 -117.5t-87 -314.5z" />
    <glyph glyph-name="ntilde" unicode="&#xf1;" 
d="M182 0v1104l166 14v-76q141 82 305 82q188 0 287.5 -97t99.5 -279v-748h-172v729q0 111 -64.5 174.5t-182.5 63.5q-133 0 -267 -58v-909h-172zM260 1411q92 131 221 131q63 0 160.5 -66.5t130.5 -66.5q76 0 137 82l54 -105q-82 -125 -211 -124q-55 0 -155.5 65.5
t-135.5 65.5q-82 0 -150 -86z" />
    <glyph glyph-name="ograve" unicode="&#xf2;" horiz-adv-x="1230" 
d="M115 541q0 268 149.5 430t364.5 162q227 0 358 -144.5t131 -419.5q0 -268 -151.5 -428.5t-366.5 -160.5q-227 0 -356 144.5t-129 416.5zM287 1583h194l226 -330h-150zM293 551q0 -205 84 -311.5t241 -106.5q143 0 231.5 116t88.5 312q0 205 -84 310.5t-240 105.5
q-145 0 -233 -114.5t-88 -311.5z" />
    <glyph glyph-name="oacute" unicode="&#xf3;" horiz-adv-x="1230" 
d="M115 541q0 268 149.5 430t364.5 162q227 0 358 -144.5t131 -419.5q0 -268 -151.5 -428.5t-366.5 -160.5q-227 0 -356 144.5t-129 416.5zM293 551q0 -205 84 -311.5t241 -106.5q143 0 231.5 116t88.5 312q0 205 -84 310.5t-240 105.5q-145 0 -233 -114.5t-88 -311.5z
M535 1253l223 330h196l-270 -330h-149z" />
    <glyph glyph-name="ocircumflex" unicode="&#xf4;" horiz-adv-x="1230" 
d="M115 541q0 268 149.5 430t364.5 162q227 0 358 -144.5t131 -419.5q0 -268 -151.5 -428.5t-366.5 -160.5q-227 0 -356 144.5t-129 416.5zM293 551q0 -205 84 -311.5t241 -106.5q143 0 231.5 116t88.5 312q0 205 -84 310.5t-240 105.5q-145 0 -233 -114.5t-88 -311.5z
M295 1253l235 330h185l223 -330h-172l-137 199h-35l-139 -199h-160z" />
    <glyph glyph-name="otilde" unicode="&#xf5;" horiz-adv-x="1230" 
d="M115 541q0 268 149.5 430t364.5 162q227 0 358 -144.5t131 -419.5q0 -268 -151.5 -428.5t-366.5 -160.5q-227 0 -356 144.5t-129 416.5zM264 1411q92 131 223 131q63 0 159.5 -66.5t131.5 -66.5q74 0 135 82l54 -105q-82 -125 -209 -124q-57 0 -157.5 65.5t-133.5 65.5
q-82 0 -152 -86zM293 551q0 -205 84 -311.5t241 -106.5q143 0 231.5 116t88.5 312q0 205 -84 310.5t-240 105.5q-145 0 -233 -114.5t-88 -311.5z" />
    <glyph glyph-name="odieresis" unicode="&#xf6;" horiz-adv-x="1230" 
d="M115 541q0 268 149.5 430t364.5 162q227 0 358 -144.5t131 -419.5q0 -268 -151.5 -428.5t-366.5 -160.5q-227 0 -356 144.5t-129 416.5zM293 551q0 -205 84 -311.5t241 -106.5q143 0 231.5 116t88.5 312q0 205 -84 310.5t-240 105.5q-145 0 -233 -114.5t-88 -311.5z
M334 1388.5q0 106.5 104.5 106.5t104.5 -106.5t-104.5 -106.5t-104.5 106.5zM688 1389q0 51 28.5 78.5t76.5 27.5q51 0 79.5 -27.5t28.5 -78t-28.5 -79t-79.5 -28.5q-105 1 -105 107z" />
    <glyph glyph-name="divide" unicode="&#xf7;" 
d="M154 598v152h897v-152h-897zM498 323.5q0 104.5 104.5 104.5t104.5 -104.5t-104.5 -104.5t-104.5 104.5zM498 1026q0 104 104.5 104t104.5 -104t-104.5 -104t-104.5 104z" />
    <glyph glyph-name="oslash" unicode="&#xf8;" horiz-adv-x="1230" 
d="M115 541q0 268 149.5 430t364.5 162q121 0 217 -41l78 133l104 -62l-80 -135q170 -154 170 -459q0 -268 -151.5 -428.5t-366.5 -160.5q-123 0 -229 47l-80 -138l-105 62l84 145q-155 150 -155 445zM291 551q0 -186 69 -303l408 702q-68 33 -154 33q-145 0 -234 -116.5
t-89 -315.5zM449 168q82 -39 169 -39q143 0 233.5 118t90.5 314q0 201 -82 320z" />
    <glyph glyph-name="ugrave" unicode="&#xf9;" horiz-adv-x="1196" 
d="M166 365v739l172 14v-733q0 -240 244 -240q123 0 262 58v901l172 14v-1118h-168v68q-141 -84 -295 -84q-188 0 -287.5 97.5t-99.5 283.5zM262 1583h195l225 -330h-150z" />
    <glyph glyph-name="uacute" unicode="&#xfa;" horiz-adv-x="1196" 
d="M166 365v739l172 14v-733q0 -240 244 -240q123 0 262 58v901l172 14v-1118h-168v68q-141 -84 -295 -84q-188 0 -287.5 97.5t-99.5 283.5zM510 1253l221 330h199l-271 -330h-149z" />
    <glyph glyph-name="ucircumflex" unicode="&#xfb;" horiz-adv-x="1196" 
d="M166 365v739l172 14v-733q0 -240 244 -240q123 0 262 58v901l172 14v-1118h-168v68q-141 -84 -295 -84q-188 0 -287.5 97.5t-99.5 283.5zM270 1253l234 330h184l225 -330h-172l-137 199h-35l-139 -199h-160z" />
    <glyph glyph-name="udieresis" unicode="&#xfc;" horiz-adv-x="1196" 
d="M166 365v739l172 14v-733q0 -240 244 -240q123 0 262 58v901l172 14v-1118h-168v68q-141 -84 -295 -84q-188 0 -287.5 97.5t-99.5 283.5zM309 1388.5q0 106.5 104.5 106.5t104.5 -106.5t-104.5 -106.5t-104.5 106.5zM664 1389q0 51 28.5 78.5t75.5 27.5q51 0 78.5 -27.5
t27.5 -78t-27.5 -79t-78.5 -28.5q-104 1 -104 107z" />
    <glyph glyph-name="yacute" unicode="&#xfd;" horiz-adv-x="1026" 
d="M39 1112h190l310 -919h10l264 919h176l-405 -1262q-49 -160 -136.5 -228t-207.5 -68q-66 0 -119 14v145q61 -8 106 -8q78 0 126 41t83 137l56 160h-72zM430 1253l223 330h197l-270 -330h-150z" />
    <glyph glyph-name="thorn" unicode="&#xfe;" horiz-adv-x="1214" 
d="M182 -434v2009l172 14v-540q137 76 293 75q213 0 334 -134t121 -402q0 -283 -160 -442.5t-422 -159.5q-92 0 -166 10v-430h-172zM354 154q94 -14 187 -15q170 0 276.5 109.5t106.5 324.5q0 393 -328 394q-125 0 -242 -56v-757z" />
    <glyph glyph-name="ydieresis" unicode="&#xff;" horiz-adv-x="1026" 
d="M39 1112h190l310 -919h10l264 919h176l-405 -1262q-49 -160 -136.5 -228t-207.5 -68q-66 0 -119 14v145q61 -8 106 -8q78 0 126 41t83 137l56 160h-72zM231 1388.5q0 106.5 104.5 106.5t104.5 -106.5t-104.5 -106.5t-104.5 106.5zM586 1389q0 51 28.5 78.5t75.5 27.5
q51 0 80 -27.5t29 -78t-29 -79t-80 -28.5q-104 1 -104 107z" />
    <glyph glyph-name="OE" unicode="&#x152;" horiz-adv-x="2035" 
d="M121 735q0 360 186.5 568t470.5 208q217 0 367 -129v109h737v-156h-557v-489h502v-158h-502v-530h563v-158h-743v129q-158 -150 -404 -149q-274 0 -447 195t-173 560zM309 758q0 -322 124 -469.5t325 -147.5q113 0 217 53.5t170 157.5v793q-125 205 -385 205
q-184 0 -317.5 -145.5t-133.5 -446.5z" />
    <glyph glyph-name="oe" unicode="&#x153;" horiz-adv-x="1898" 
d="M115 541q0 268 148.5 430t359.5 162q266 0 389 -199q129 199 366 199q201 0 311.5 -115t110.5 -332q0 -45 -4 -135h-709q2 -205 96.5 -306.5t260.5 -101.5q180 0 338 70l-2 -154q-168 -74 -357 -73q-295 0 -426 213q-68 -104 -174 -161.5t-229 -57.5q-223 0 -351 144.5
t-128 416.5zM293 551q0 -205 83 -311.5t236 -106.5q139 0 226.5 116t87.5 312q0 205 -83 310.5t-237 105.5q-139 0 -226 -114.5t-87 -311.5zM1094 688h522q0 299 -248 299q-104 0 -181 -80t-93 -219z" />
    <glyph glyph-name="Ydieresis" unicode="&#x178;" horiz-adv-x="1232" 
d="M39 1491h215l373 -696h8l371 696h190l-489 -877v-614h-179v614zM334 1734.5q0 106.5 104.5 106.5t104.5 -106.5t-104.5 -106.5t-104.5 106.5zM688 1735q0 49 28.5 77.5t76.5 28.5q51 0 79.5 -28.5t28.5 -77.5t-28.5 -78t-79.5 -29q-105 1 -105 107z" />
    <glyph glyph-name="circumflex" unicode="&#x2c6;" horiz-adv-x="849" 
d="M100 1253l234 330h184l225 -330h-172l-137 199h-37l-137 -199h-160z" />
    <glyph glyph-name="tilde" unicode="&#x2dc;" horiz-adv-x="899" 
d="M88 1411q94 131 223 131q63 0 160.5 -66.5t130.5 -66.5q76 0 137 82l52 -105q-82 -125 -209 -124q-57 0 -156.5 65.5t-134.5 65.5q-82 0 -150 -86z" />
    <glyph glyph-name="endash" unicode="&#x2013;" horiz-adv-x="1136" 
d="M66 573v156h1005v-156h-1005z" />
    <glyph glyph-name="emdash" unicode="&#x2014;" horiz-adv-x="2273" 
d="M66 573v156h2142v-156h-2142z" />
    <glyph glyph-name="quoteleft" unicode="&#x2018;" horiz-adv-x="559" 
d="M145 1206q0 74 94.5 223.5t125.5 149.5h92l-109 -264q66 -33 66 -111q0 -59 -38 -101t-96.5 -42t-96.5 39.5t-38 105.5z" />
    <glyph glyph-name="quoteright" unicode="&#x2019;" horiz-adv-x="559" 
d="M102 1063l109 266q-66 35 -66 111q0 57 38 100t96.5 43t96.5 -40t38 -105q0 -74 -94.5 -224.5t-124.5 -150.5h-93z" />
    <glyph glyph-name="quotesinglbase" unicode="&#x201a;" horiz-adv-x="559" 
d="M102 -250l109 266q-66 33 -66 109q0 59 38 101t96.5 42t96.5 -40t38 -105q0 -74 -94.5 -223.5t-124.5 -149.5h-93z" />
    <glyph glyph-name="quotedblleft" unicode="&#x201c;" horiz-adv-x="921" 
d="M145 1206q0 74 94.5 223.5t125.5 149.5h92l-109 -264q66 -33 66 -111q0 -59 -38 -101t-96.5 -42t-96.5 39.5t-38 105.5zM510 1206q0 74 94 223.5t123 149.5h94l-110 -264q68 -33 67 -111q0 -59 -38 -101t-97 -42t-96 39.5t-37 105.5z" />
    <glyph glyph-name="quotedblright" unicode="&#x201d;" horiz-adv-x="921" 
d="M102 1063l109 266q-66 35 -66 111q0 57 38 100t96.5 43t96.5 -40t38 -105q0 -74 -94.5 -224.5t-124.5 -150.5h-93zM467 1063l108 266q-66 35 -65 111q0 57 37 100t96 43t97 -40t38 -105q0 -74 -95 -224.5t-124 -150.5h-92z" />
    <glyph glyph-name="quotedblbase" unicode="&#x201e;" horiz-adv-x="921" 
d="M102 -250l109 266q-66 33 -66 109q0 59 38 101t96.5 42t96.5 -40t38 -105q0 -74 -94.5 -223.5t-124.5 -149.5h-93zM467 -250l108 266q-66 33 -65 109q0 59 37 101t96 42t97 -40t38 -105q0 -74 -95 -223.5t-124 -149.5h-92z" />
    <glyph glyph-name="bullet" unicode="&#x2022;" horiz-adv-x="645" 
d="M84 670.5q0 113.5 63.5 182.5t175 69t175 -65.5t63.5 -186.5q0 -106 -64.5 -174t-172.5 -68q-115 0 -177.5 64.5t-62.5 178z" />
    <glyph glyph-name="ellipsis" unicode="&#x2026;" horiz-adv-x="1501" 
d="M143 129q0 63 35 103t103 40q63 0 99 -36.5t36 -106.5q0 -61 -36 -99t-99 -38q-68 0 -103 35.5t-35 101.5zM616 129q0 63 35 103t101 40q63 0 100 -36.5t37 -106.5q0 -61 -37 -99t-100 -38q-66 0 -101 35.5t-35 101.5zM1087 129q0 63 35 103t101 40q63 0 100 -36.5
t37 -106.5q0 -61 -37 -99t-100 -38q-66 0 -101 35.5t-35 101.5z" />
    <glyph glyph-name="guilsinglleft" unicode="&#x2039;" horiz-adv-x="878" 
d="M150 569l368 486h199l-369 -475l369 -498h-199z" />
    <glyph glyph-name="guilsinglright" unicode="&#x203a;" horiz-adv-x="878" 
d="M164 82l368 475l-368 498h196l369 -486l-369 -487h-196z" />
    <glyph glyph-name="Euro" unicode="&#x20ac;" 
d="M61 492v143h191v59q0 68 8 129h-199v146h220q57 258 226 397t390 139q129 0 240 -26v-162q-137 29 -246 29q-160 0 -271.5 -95.5t-156.5 -281.5h465v-146h-486q-4 -68 -4 -102q0 -59 2 -86h488v-143h-467q41 -182 148.5 -267.5t256.5 -85.5q119 0 285 31v-152
q-145 -37 -295 -36q-231 0 -388 124.5t-202 385.5h-205z" />
    <glyph glyph-name="trademark" unicode="&#x2122;" horiz-adv-x="1972" 
d="M121 1364v127h622v-127h-235v-682h-152v682h-235zM901 682l35 809h197l219 -502h6l217 502h176l33 -809h-135l-17 635h-6l-223 -492h-117l-223 492h-6l-19 -635h-137z" />
    <glyph glyph-name="uniE000" unicode="&#xe000;" horiz-adv-x="1110" 
d="M0 1110h1110v-1110h-1110v1110z" />
    <glyph glyph-name="uniFB01" unicode="&#xfb01;" horiz-adv-x="1243" 
d="M80 971v141h135v127q0 354 434 354q217 0 426 -18l-14 -148q-209 16 -418 17q-139 0 -196.5 -46t-57.5 -155v-131h502l170 6v-1118h-170v971h-502v-971h-174v971h-135z" />
    <glyph glyph-name="uniFB02" unicode="&#xfb02;" horiz-adv-x="1243" 
d="M80 971v141h135v127q0 168 102.5 261t311.5 93q147 0 268 -18l164 14v-1589h-170v1427q-111 16 -258 17q-133 0 -188.5 -48t-55.5 -153v-131h285v-141h-285v-971h-174v971h-135z" />
    <glyph glyph-name="uniFB03" unicode="&#xfb03;" horiz-adv-x="1951" 
d="M80 971v141h135v127q0 166 97.5 260t283.5 94q72 0 154 -18l-21 -148q-63 16 -137 17q-203 0 -203 -201v-131h535v127q0 354 436 354q215 0 422 -18l-10 -148q-215 16 -420 17q-139 0 -197.5 -46t-58.5 -155v-131h501l175 6v-1118h-175v971h-501v-971h-172v971h-535v-971
h-174v971h-135z" />
    <glyph glyph-name="uniFB04" unicode="&#xfb04;" horiz-adv-x="1951" 
d="M80 971v141h135v127q0 166 97.5 260t283.5 94q72 0 154 -18l-21 -148q-63 16 -137 17q-203 0 -203 -201v-131h535v127q0 168 103 261t312 93q141 0 269 -18l164 14v-1589h-175v1427q-109 16 -258 17q-133 0 -188 -49t-55 -152v-131h282v-141h-282v-971h-172v971h-535
v-971h-174v971h-135z" />
    <glyph glyph-name="CR" horiz-adv-x="413" 
 />
    </font>
</defs>
</svg>
